# xmcd
#
# Track frame offsets:
#	150
#	13725
#	38225
#	50050
#	60300
#	72538
#	86688
#	100800
#	114713
#	126075
#
# Disc length: 1893 seconds
#
# Revision: 2
# Processed by: cddbd v1.5.2PL0 Copyright (c) Steve Scherf et al.
# Submitted via: EasyCDDAExtractor 10.5.1.1
#
DISCID=8a07630a
DTITLE=Various Artist - Johnny Otis Presents The Best Of R&B - Vol. 1
DYEAR=1993
DGENRE=R&B
TTITLE0=Joe Turner - Shake Rattle and Roll
TTITLE1=Pee Wee Crayton - Blues After Hours
TTITLE2=Johnny Otis - Country Girl
TTITLE3=Richard Berry - Louie Louie
TTITLE4=Charles Brown - Trouble Blues
TTITLE5=Louis Jordan - I Got The Walkin' Blues
TTITLE6=Joe Liggins and The Honeydrippers - I've Got A Right To Cry
TTITLE7=Amos Milburn - One Scotch, One Bourbon, One Beer
TTITLE8=Eddie "Cleanhead" Vinson - Person To Person
TTITLE9=Gatemouth Moore - My Mother Thinks I'm Something
EXTD=
EXTT0=
EXTT1=
EXTT2=
EXTT3=
EXTT4=
EXTT5=
EXTT6=
EXTT7=
EXTT8=
EXTT9=
PLAYORDER=
